<?xml version="1.0" encoding="UTF-8"?>
<svg width="200px" height="64px" viewBox="0 0 200 64" version="1.1" xmlns="http://www.w3.org/2000/svg" xmlns:xlink="http://www.w3.org/1999/xlink">
    <!-- Generator: Sketch 53.2 (72643) - https://sketchapp.com -->
    <title>img_appstore_de</title>
    <desc>Created with Sketch.</desc>
    <g id="Page-1" stroke="none" stroke-width="1" fill="none" fill-rule="evenodd">
        <g id="header-copy-3" transform="translate(-140.000000, -620.000000)">
            <g id="img_appstore_de" transform="translate(140.000000, 620.000000)">
                <path d="M12.8427141,63.9966538 C12.3254098,63.9966538 11.8216742,63.9899613 11.3094582,63.9782495 C10.3596537,63.9531528 9.23515294,63.8996131 8.1377895,63.7055317 C7.103181,63.5214891 6.1839059,63.2203283 5.32908183,62.7886646 C4.44372832,62.3469623 3.64826703,61.7747569 2.95965875,61.0887797 C2.25748183,60.4078218 1.67911872,59.6281502 1.22796157,58.7514378 C0.788676973,57.9065147 0.4884709,56.9996863 0.306990392,55.9790861 C0.100068691,54.8530796 0.0474902263,53.7120151 0.0254411927,52.8419952 C0.0135686361,52.4889679 0,51.3144411 0,51.3144411 L0,12.6638084 C0,12.6638084 0.0152647156,11.5076859 0.0254411927,11.1680435 C0.0474902263,10.2913312 0.100068691,9.15026665 0.305294312,8.03597198 C0.48677482,7.00867928 0.786980894,6.10185088 1.22796157,5.25525463 C1.67742264,4.37686918 2.25578575,3.59217819 2.94948227,2.91623967 C3.64996311,2.22357001 4.44881656,1.64969152 5.32738575,1.20464289 C6.19917062,0.767959845 7.11674963,0.470145352 8.13100518,0.294468263 C9.27416277,0.0936944473 10.430889,0.0418278783 11.3128503,0.0200773816 L12.8427141,0 L187.145413,0 L188.693934,0.0217504967 C189.564023,0.0418278783 190.722445,0.0936944473 191.846946,0.292795148 C192.867986,0.470145352 193.794045,0.76963296 194.681095,1.20966224 C195.551183,1.64969152 196.346645,2.22357001 197.040341,2.90954721 C197.73743,3.58883196 198.315793,4.3785423 198.777127,5.25860086 C199.214715,6.11356269 199.511529,7.02039109 199.686225,8.01756771 C199.881274,9.07330336 199.942333,10.157482 199.979647,11.174736 C199.984735,11.6482275 199.984735,12.1585277 199.984735,12.6638084 C200,13.2912266 200,13.8885287 200,14.4908502 L200,49.5074767 C200,50.1148175 200,50.7087734 199.984735,51.3060755 C199.984735,51.8498379 199.984735,52.3484262 199.977951,52.8620726 C199.942333,53.8475374 199.881274,54.9300429 199.687921,55.9623549 C199.511529,56.9879745 199.214715,57.8948029 198.772038,58.7564572 C198.315793,59.626477 197.734038,60.411168 197.050518,61.0753948 C196.348341,61.7747569 195.55288,62.3452891 194.677702,62.7853184 C193.795741,63.2270208 192.898515,63.519816 191.846946,63.7055317 C190.761455,63.8996131 189.636954,63.9531528 188.676973,63.9782495 C188.181718,63.9899613 187.659325,63.9966538 187.153894,63.9966538 L185.315344,64 L12.8427141,63.9966538" id="Fill-4" fill="#000000"></path>
                <g id="content" transform="translate(17.000000, 11.000000)" fill="#FFFFFE">
                    <path d="M24.6621799,19.9733333 C24.6205133,15.3883333 28.4155133,13.1566667 28.5905133,13.0516667 C26.4405133,9.91833333 23.1071799,9.49 21.9371799,9.45666667 C19.1388466,9.16166667 16.4255133,11.1316667 14.9988466,11.1316667 C13.5455133,11.1316667 11.3505133,9.485 8.98551326,9.535 C5.94217993,9.58166667 3.09217993,11.345 1.53051326,14.0816667 C-1.69282007,19.6616667 0.712179928,27.8633333 3.79884659,32.3733333 C5.34384659,34.5833333 7.14884659,37.0516667 9.51217993,36.9633333 C11.8238466,36.8683333 12.6871799,35.4883333 15.4771799,35.4883333 C18.2421799,35.4883333 19.0521799,36.9633333 21.4621799,36.9083333 C23.9421799,36.8683333 25.5055133,34.6883333 26.9971799,32.4583333 C28.7821799,29.9266667 29.4988466,27.4316667 29.5271799,27.305 C29.4688466,27.285 24.7088466,25.47 24.6621799,19.9733333" id="Fill-5"></path>
                    <path d="M20.1088466,6.49 C21.3521799,4.935 22.2021799,2.82 21.9671799,0.671666667 C20.1671799,0.751666667 17.9171799,1.91666667 16.6205133,3.43833333 C15.4738466,4.77833333 14.4505133,6.975 14.7138466,9.04 C16.7355133,9.19166667 18.8121799,8.02 20.1088466,6.49" id="Fill-6"></path>
                    <path d="M46.8121799,28.79 L53.0655133,28.79 L49.9821799,19.7116667 L49.8971799,19.7116667 L46.8121799,28.79 Z M53.8838466,31.3716667 L45.9955133,31.3716667 L44.1005133,36.965 L40.7588466,36.965 L48.2321799,16.2683333 L51.7038466,16.2683333 L59.1755133,36.965 L55.7771799,36.965 L53.8838466,31.3716667 L53.8838466,31.3716667 Z" id="Fill-7"></path>
                    <path d="M72.1305133,29.4216667 C72.1305133,26.3666667 70.5505133,24.3583333 68.1421799,24.3583333 C65.7755133,24.3583333 64.1838466,26.4083333 64.1838466,29.4216667 C64.1838466,32.4616667 65.7755133,34.4983333 68.1421799,34.4983333 C70.5505133,34.4983333 72.1305133,32.5033333 72.1305133,29.4216667 Z M75.3138466,29.4216667 C75.3138466,34.11 72.8038466,37.1233333 69.0155133,37.1233333 C66.8655133,37.1233333 65.1588466,36.1616667 64.2688466,34.4833333 L64.1971799,34.4833333 L64.1971799,41.9566667 L61.0988466,41.9566667 L61.0988466,21.875 L64.0971799,21.875 L64.0971799,24.385 L64.1538466,24.385 C65.0155133,22.7666667 66.8521799,21.7183333 68.9588466,21.7183333 C72.7888466,21.7183333 75.3138466,24.745 75.3138466,29.4216667 L75.3138466,29.4216667 Z" id="Fill-8"></path>
                    <path d="M88.7371799,29.4216667 C88.7371799,26.3666667 87.1588466,24.3583333 84.7505133,24.3583333 C82.3838466,24.3583333 80.7921799,26.4083333 80.7921799,29.4216667 C80.7921799,32.4616667 82.3838466,34.4983333 84.7505133,34.4983333 C87.1588466,34.4983333 88.7371799,32.5033333 88.7371799,29.4216667 Z M91.9205133,29.4216667 C91.9205133,34.11 89.4121799,37.1233333 85.6238466,37.1233333 C83.4738466,37.1233333 81.7671799,36.1616667 80.8771799,34.4833333 L80.8055133,34.4833333 L80.8055133,41.9566667 L77.7071799,41.9566667 L77.7071799,21.875 L80.7055133,21.875 L80.7055133,24.385 L80.7621799,24.385 C81.6238466,22.7666667 83.4588466,21.7183333 85.5671799,21.7183333 C89.3971799,21.7183333 91.9205133,24.745 91.9205133,29.4216667 L91.9205133,29.4216667 Z" id="Fill-9"></path>
                    <path d="M102.898847,31.1983333 C103.12718,33.2516667 105.12218,34.5983333 107.845513,34.5983333 C110.45718,34.5983333 112.335513,33.2516667 112.335513,31.4 C112.335513,29.7933333 111.20218,28.8316667 108.520513,28.1733333 L105.83718,27.5266667 C102.03718,26.6083333 100.27218,24.8316667 100.27218,21.9466667 C100.27218,18.3766667 103.385513,15.9233333 107.803847,15.9233333 C112.17718,15.9233333 115.175513,18.3766667 115.275513,21.9466667 L112.148847,21.9466667 C111.96218,19.8816667 110.253847,18.635 107.760513,18.635 C105.263847,18.635 103.55718,19.8966667 103.55718,21.7316667 C103.55718,23.195 104.64718,24.0566667 107.315513,24.7166667 L109.595513,25.275 C113.84218,26.28 115.60718,27.985 115.60718,31.0133333 C115.60718,34.885 112.52218,37.31 107.61718,37.31 C103.02718,37.31 99.9271799,34.9416667 99.7271799,31.1983333 L102.898847,31.1983333" id="Fill-10"></path>
                    <path d="M122.290513,18.305 L122.290513,21.875 L125.160513,21.875 L125.160513,24.3283333 L122.290513,24.3283333 L122.290513,32.6466667 C122.290513,33.94 122.865513,34.5416667 124.12718,34.5416667 C124.44218,34.5416667 124.945513,34.4983333 125.145513,34.47 L125.145513,36.9083333 C124.80218,36.995 124.113847,37.0516667 123.425513,37.0516667 C120.370513,37.0516667 119.178847,35.9033333 119.178847,32.9783333 L119.178847,24.3283333 L116.985513,24.3283333 L116.985513,21.875 L119.178847,21.875 L119.178847,18.305 L122.290513,18.305" id="Fill-11"></path>
                    <path d="M137.980513,29.4216667 C137.980513,26.165 136.488847,24.2416667 133.978847,24.2416667 C131.468847,24.2416667 129.978847,26.1783333 129.978847,29.4216667 C129.978847,32.6916667 131.468847,34.5983333 133.978847,34.5983333 C136.488847,34.5983333 137.980513,32.6916667 137.980513,29.4216667 Z M126.82218,29.4216667 C126.82218,24.6733333 129.618847,21.69 133.978847,21.69 C138.353847,21.69 141.13718,24.6733333 141.13718,29.4216667 C141.13718,34.1816667 138.368847,37.1516667 133.978847,37.1516667 C129.590513,37.1516667 126.82218,34.1816667 126.82218,29.4216667 L126.82218,29.4216667 Z" id="Fill-12"></path>
                    <path d="M143.690513,21.875 L146.645513,21.875 L146.645513,24.4433333 L146.71718,24.4433333 C147.190513,22.7366667 148.56718,21.7183333 150.345513,21.7183333 C150.790513,21.7183333 151.16218,21.7766667 151.40718,21.8333333 L151.40718,24.73 C151.16218,24.63 150.61718,24.5433333 150.015513,24.5433333 C148.02218,24.5433333 146.788847,25.8933333 146.788847,28.015 L146.788847,36.965 L143.690513,36.965 L143.690513,21.875" id="Fill-13"></path>
                    <path d="M155.21718,28.03 L162.760513,28.03 C162.688847,25.72 161.21218,24.2 159.060513,24.2 C156.923847,24.2 155.375513,25.75 155.21718,28.03 Z M165.68718,32.5333333 C165.270513,35.2733333 162.603847,37.1516667 159.190513,37.1516667 C154.800513,37.1516667 152.075513,34.2116667 152.075513,29.4933333 C152.075513,24.76 154.815513,21.69 159.060513,21.69 C163.235513,21.69 165.860513,24.5583333 165.860513,29.1333333 L165.860513,30.195 L155.20218,30.195 L155.20218,30.3816667 C155.20218,32.9633333 156.823847,34.655 159.26218,34.655 C160.98218,34.655 162.33218,33.8383333 162.74718,32.5333333 L165.68718,32.5333333 L165.68718,32.5333333 Z" id="Fill-14"></path>
                    <polyline id="Fill-15" points="49.0355133 10.635 42.8321799 10.635 42.8321799 0.69 44.3771799 0.69 44.3771799 9.215 49.0355133 9.215 49.0355133 10.635"></polyline>
                    <path d="M55.4205133,7.87166667 L55.4205133,7.24333333 L53.5871799,7.36 C52.5538466,7.43 52.0855133,7.78166667 52.0855133,8.44333333 C52.0855133,9.11833333 52.6705133,9.51166667 53.4771799,9.51166667 C54.5938466,9.51166667 55.4205133,8.80166667 55.4205133,7.87166667 Z M50.5955133,8.51166667 C50.5955133,7.16166667 51.6021799,6.38166667 53.3871799,6.27166667 L55.4205133,6.155 L55.4205133,5.50666667 C55.4205133,4.715 54.8955133,4.26666667 53.8838466,4.26666667 C53.0571799,4.26666667 52.4838466,4.57 52.3188466,5.1 L50.8855133,5.1 C51.0371799,3.81166667 52.2488466,2.985 53.9521799,2.985 C55.8338466,2.985 56.8938466,3.92166667 56.8938466,5.50666667 L56.8938466,10.635 L55.4688466,10.635 L55.4688466,9.58 L55.3521799,9.58 C54.9038466,10.3316667 54.0838466,10.7583333 53.0971799,10.7583333 C51.6505133,10.7583333 50.5955133,9.88333333 50.5955133,8.51166667 L50.5955133,8.51166667 Z" id="Fill-16"></path>
                    <path d="M60.3705133,6.87833333 C60.3705133,8.47 61.1221799,9.42833333 62.3771799,9.42833333 C63.6255133,9.42833333 64.3955133,8.45666667 64.3955133,6.885 C64.3955133,5.32166667 63.6171799,4.335 62.3771799,4.335 C61.1288466,4.335 60.3705133,5.3 60.3705133,6.87833333 Z M58.8405133,6.87833333 C58.8405133,4.50666667 60.0605133,3.005 61.9571799,3.005 C62.9838466,3.005 63.8505133,3.495 64.2571799,4.32166667 L64.3688466,4.32166667 L64.3688466,0.2 L65.8488466,0.2 L65.8488466,10.635 L64.4305133,10.635 L64.4305133,9.44833333 L64.3138466,9.44833333 C63.8655133,10.27 62.9905133,10.7583333 61.9571799,10.7583333 C60.0471799,10.7583333 58.8405133,9.25666667 58.8405133,6.87833333 L58.8405133,6.87833333 Z" id="Fill-17"></path>
                    <path d="M69.4155133,6.19 L73.2071799,6.19 C73.1721799,5.01166667 72.4555133,4.245 71.3588466,4.245 C70.2638466,4.245 69.4988466,5.01833333 69.4155133,6.19 Z M74.6255133,8.60833333 C74.2888466,9.95333333 73.0888466,10.78 71.3738466,10.78 C69.2238466,10.78 67.9071799,9.305 67.9071799,6.905 C67.9071799,4.50666667 69.2521799,2.985 71.3671799,2.985 C73.4555133,2.985 74.7155133,4.41166667 74.7155133,6.76833333 L74.7155133,7.285 L69.4155133,7.285 L69.4155133,7.36833333 C69.4638466,8.68333333 70.2288466,9.51833333 71.4138466,9.51833333 C72.3105133,9.51833333 72.9255133,9.19333333 73.2005133,8.60833333 L74.6255133,8.60833333 L74.6255133,8.60833333 Z" id="Fill-18"></path>
                    <path d="M76.7038466,3.13 L78.1305133,3.13 L78.1305133,4.32166667 L78.2405133,4.32166667 C78.6055133,3.48833333 79.3505133,2.985 80.4805133,2.985 C82.1555133,2.985 83.0771799,3.99 83.0771799,5.77666667 L83.0771799,10.635 L81.5971799,10.635 L81.5971799,6.14833333 C81.5971799,4.94166667 81.0721799,4.34166667 79.9771799,4.34166667 C78.8821799,4.34166667 78.1855133,5.07333333 78.1855133,6.24333333 L78.1855133,10.635 L76.7038466,10.635 L76.7038466,3.13" id="Fill-19"></path>
                    <path d="M89.4671799,10.635 L90.9421799,10.635 L90.9421799,3.13 L89.4671799,3.13 L89.4671799,10.635 Z M89.2471799,0.91 C89.2471799,0.393333333 89.6538466,-5.32907052e-15 90.2055133,-5.32907052e-15 C90.7555133,-5.32907052e-15 91.1621799,0.393333333 91.1621799,0.91 C91.1621799,1.42 90.7555133,1.81333333 90.2055133,1.81333333 C89.6538466,1.81333333 89.2471799,1.42 89.2471799,0.91 L89.2471799,0.91 Z" id="Fill-20"></path>
                    <path d="M93.3321799,3.13 L94.7588466,3.13 L94.7588466,4.335 L94.8688466,4.335 C95.1988466,3.48833333 95.9571799,2.985 96.9571799,2.985 C97.9838466,2.985 98.6938466,3.515 99.0238466,4.335 L99.1421799,4.335 C99.5205133,3.515 100.38218,2.985 101.423847,2.985 C102.938847,2.985 103.820513,3.90166667 103.820513,5.465 L103.820513,10.635 L102.340513,10.635 L102.340513,5.85166667 C102.340513,4.83833333 101.85718,4.34166667 100.885513,4.34166667 C99.9271799,4.34166667 99.3005133,5.03166667 99.3005133,5.91333333 L99.3005133,10.635 L97.8455133,10.635 L97.8455133,5.70666667 C97.8455133,4.85833333 97.2805133,4.34166667 96.3988466,4.34166667 C95.4955133,4.34166667 94.8138466,5.08 94.8138466,6.045 L94.8138466,10.635 L93.3321799,10.635 L93.3321799,3.13" id="Fill-21"></path>
                </g>
            </g>
        </g>
    </g>
</svg>