<?xml version="1.0" encoding="UTF-8"?>
<svg width="200px" height="64px" viewBox="0 0 200 64" version="1.1" xmlns="http://www.w3.org/2000/svg" xmlns:xlink="http://www.w3.org/1999/xlink">
    <!-- Generator: Sketch 53.2 (72643) - https://sketchapp.com -->
    <title>img_googleplay_de</title>
    <desc>Created with Sketch.</desc>
    <defs>
        <linearGradient x1="61.0453132%" y1="4.94615078%" x2="26.512955%" y2="71.8787395%" id="linearGradient-1">
            <stop stop-color="#00A0FF" offset="0%"></stop>
            <stop stop-color="#00A1FF" offset="1%"></stop>
            <stop stop-color="#00BEFF" offset="26%"></stop>
            <stop stop-color="#00D2FF" offset="51%"></stop>
            <stop stop-color="#00DFFF" offset="76%"></stop>
            <stop stop-color="#00E3FF" offset="100%"></stop>
        </linearGradient>
        <linearGradient x1="107.684729%" y1="50%" x2="-130.640394%" y2="50%" id="linearGradient-2">
            <stop stop-color="#FFE000" offset="0%"></stop>
            <stop stop-color="#FFBD00" offset="41%"></stop>
            <stop stop-color="#FFA500" offset="78%"></stop>
            <stop stop-color="#FF9C00" offset="100%"></stop>
        </linearGradient>
        <linearGradient x1="86.2709832%" y1="30.8725537%" x2="-50.1798561%" y2="136.108936%" id="linearGradient-3">
            <stop stop-color="#FF3A44" offset="0%"></stop>
            <stop stop-color="#C31162" offset="100%"></stop>
        </linearGradient>
        <linearGradient x1="-18.82494%" y1="-11.9103989%" x2="42.0863309%" y2="35.0790955%" id="linearGradient-4">
            <stop stop-color="#32A071" offset="0%"></stop>
            <stop stop-color="#2DA771" offset="7%"></stop>
            <stop stop-color="#15CF74" offset="48%"></stop>
            <stop stop-color="#06E775" offset="80%"></stop>
            <stop stop-color="#00F076" offset="100%"></stop>
        </linearGradient>
    </defs>
    <g id="Page-1" stroke="none" stroke-width="1" fill="none" fill-rule="evenodd">
        <g id="header-copy-3" transform="translate(-356.000000, -620.000000)" fill-rule="nonzero">
            <g id="img_googleplay_de" transform="translate(356.000000, 620.000000)">
                <rect id="Rectangle" fill="#000000" x="0" y="0" width="200" height="64" rx="7.40740741"></rect>
                <g id="content" transform="translate(14.000000, 12.000000)">
                    <path d="M86.4783237,21.8519863 C82.9928075,21.8601779 80.173877,24.6923843 80.1820622,28.1779006 C80.1902473,31.6634169 83.0224486,34.4823525 86.5079649,34.4741737 C89.9934812,34.465995 92.812422,31.6337989 92.8042496,28.1482826 C92.8286541,26.4658734 92.1690372,24.8456304 90.9764795,23.6586584 C89.7839218,22.4716865 88.1605998,21.8196836 86.4783237,21.8519863 L86.4783237,21.8519863 Z M86.4783237,31.9705048 C84.9127346,32.0799941 83.4393207,31.2213396 82.7627997,29.8052264 C82.0862788,28.3891132 82.3441546,26.7033683 83.413088,25.5542649 C84.4820214,24.4051615 86.1447502,24.0262565 87.6060094,24.5987761 C89.0672686,25.1712956 90.0300554,26.5788743 90.0338793,28.1482826 C90.0820908,29.1300188 89.7317055,30.0896052 89.0622353,30.8092857 C88.3927652,31.5289661 87.4609787,31.9477143 86.4783237,31.9705048 L86.4783237,31.9705048 Z M72.6709163,21.8519863 C69.1854,21.8601779 66.3664696,24.6923843 66.3746548,28.1779006 C66.3828399,31.6634169 69.2150412,34.4823525 72.7005575,34.4741737 C76.1860738,34.465995 79.0050146,31.6337989 78.9968422,28.1482826 C79.0212467,26.4658734 78.3616298,24.8456304 77.1690721,23.6586584 C75.9765144,22.4716865 74.3531924,21.8196836 72.6709163,21.8519863 L72.6709163,21.8519863 Z M72.6709163,31.9705048 C71.1053272,32.0799941 69.6319133,31.2213396 68.9553923,29.8052264 C68.2788714,28.3891132 68.5367472,26.7033683 69.6056806,25.5542649 C70.674614,24.4051615 72.3373428,24.0262565 73.798602,24.5987761 C75.2598612,25.1712956 76.222648,26.5788743 76.2264719,28.1482826 C76.2746834,29.1300188 75.9242981,30.0896052 75.2548279,30.8092857 C74.5853578,31.5289661 73.6535713,31.9477143 72.6709163,31.9705048 L72.6709163,31.9705048 Z M56.2561015,23.7927271 L56.2561015,26.4593937 L62.6561015,26.4593937 C62.555751,27.7153994 62.0336491,28.9005707 61.17462,29.8223567 C59.8763264,31.145116 58.078283,31.85572 56.2264719,31.7779123 C52.2991137,31.7779123 49.1153608,28.5941594 49.1153608,24.6668011 C49.1153608,20.7394429 52.2991137,17.55569 56.2264719,17.55569 C58.0345424,17.5288008 59.780391,18.2154303 61.0857311,19.4668011 L62.9672126,17.5853197 C61.1834803,15.8211036 58.764603,14.849281 56.2561015,14.8890234 C52.6693767,14.7494367 49.2937216,16.5833519 47.4588482,19.6683672 C45.6239749,22.7533824 45.6239749,26.5950347 47.4588482,29.6800499 C49.2937216,32.7650652 52.6693767,34.5989804 56.2561015,34.4593937 C58.8193588,34.5617709 61.3043201,33.5645522 63.0857311,31.718653 C64.6414622,30.0096309 65.4704173,27.7618873 65.3968422,25.4519863 C65.4021449,24.8960242 65.3575214,24.3407085 65.2635089,23.7927271 L56.2561015,23.7927271 Z M123.382027,25.8668011 C122.591034,23.539705 120.445624,21.9424353 117.989435,21.8519863 C116.351455,21.8487838 114.785205,22.5237012 113.66259,23.7164805 C112.539974,24.9092597 111.961132,26.5135021 112.063509,28.1482826 C112.037495,30.9257929 113.84295,33.3890214 116.499449,34.2003491 C119.155949,35.0116768 122.029557,33.9774922 123.559805,31.6593937 L121.411657,30.1779123 C120.760053,31.2639774 119.581842,31.9235499 118.315361,31.9112456 C117.001042,31.9655118 115.788564,31.2062417 115.263509,30.0001345 L123.693139,26.518653 L123.382027,25.8668011 Z M114.789435,27.9705048 C114.728779,27.0408924 115.044823,26.1259877 115.666327,25.4320206 C116.287832,24.7380535 117.162488,24.3234318 118.093139,24.281616 C119.069088,24.2220445 119.985656,24.7533036 120.419064,25.6297641 L114.789435,27.9705048 Z M107.94499,34.0742085 L110.715361,34.0742085 L110.715361,15.55569 L107.94499,15.55569 L107.94499,34.0742085 Z M103.411657,23.2593937 L103.307953,23.2593937 C102.470482,22.3056268 101.258629,21.7646211 99.9894348,21.7779123 C96.6266895,21.9409814 93.9840083,24.7149191 93.9840083,28.081616 C93.9840083,31.4483128 96.6266895,34.2222505 99.9894348,34.3853197 C101.261135,34.4108288 102.477905,33.8676281 103.307953,32.9038382 L103.411657,32.9038382 L103.411657,33.8075419 C103.411657,36.2223567 102.122768,37.5112456 100.048694,37.5112456 C98.6316788,37.4801161 97.3736559,36.5965745 96.8635089,35.2742085 L94.4635089,36.2668011 C95.3718782,38.5482671 97.5932646,40.0331196 100.048694,40.0001345 C103.293139,40.0001345 105.97462,38.0890234 105.97462,33.4371715 L105.97462,22.2223567 L103.411657,22.2223567 L103.411657,23.2593937 Z M100.226472,31.9705048 C98.2117854,31.8448933 96.6420955,30.1742885 96.6420955,28.15569 C96.6420955,26.1370916 98.2117854,24.4664868 100.226472,24.3408752 C101.185021,24.3822409 102.085747,24.8108322 102.722471,25.5285433 C103.359195,26.2462544 103.677401,27.1916344 103.60425,28.1482826 C103.685931,29.1083558 103.37115,30.0600325 102.733095,30.7820422 C102.095039,31.5040519 101.189302,31.9334883 100.226472,31.9705048 L100.226472,31.9705048 Z M136.359805,15.55569 L129.722768,15.55569 L129.722768,34.0742085 L132.493139,34.0742085 L132.493139,27.0519863 L136.359805,27.0519863 C138.51193,27.2065994 140.570137,26.1460737 141.693331,24.3037981 C142.816526,22.4615226 142.816526,20.1461538 141.693331,18.3038782 C140.570137,16.4616027 138.51193,15.401077 136.359805,15.55569 L136.359805,15.55569 Z M136.359805,24.4445789 L132.493139,24.4445789 L132.493139,18.1334678 L136.419064,18.1334678 C137.551729,18.1334678 138.598354,18.7377369 139.164686,19.718653 C139.731018,20.699569 139.731018,21.9081074 139.164686,22.8890234 C138.598354,23.8699394 137.551729,24.4742086 136.419064,24.4742085 L136.359805,24.4445789 Z M153.456102,21.7927271 C151.394011,21.6655785 149.454179,22.7782148 148.522768,24.6223567 L150.967213,25.6445789 C151.47181,24.7348352 152.464103,24.2067724 153.500546,24.2964308 C154.210958,24.2134598 154.924922,24.4193494 155.482069,24.8678533 C156.039217,25.3163571 156.39284,25.9698751 156.463509,26.681616 L156.463509,26.8593937 C155.57264,26.3911223 154.581062,26.1470415 153.57462,26.1482826 C150.937583,26.1482826 148.241287,27.6297641 148.241287,30.3260604 C148.293981,31.4839586 148.813892,32.5710158 149.682211,33.3388222 C150.550531,34.1066286 151.693053,34.4895686 152.848694,34.4001345 C154.264119,34.4784277 155.611821,33.7875888 156.37462,32.5927271 L156.463509,32.5927271 L156.463509,34.0742085 L159.130176,34.0742085 L159.130176,26.9482826 C159.130176,23.7038382 156.670916,21.8223567 153.515361,21.8223567 L153.456102,21.7927271 Z M153.115361,31.9408752 C152.211657,31.9408752 150.952398,31.481616 150.952398,30.3705048 C150.952398,28.8890234 152.522768,28.3853197 153.915361,28.3853197 C154.795423,28.363604 155.665184,28.5784862 156.433879,29.0075419 C156.24152,30.6714001 154.849228,31.9371199 153.17462,31.9705048 L153.115361,31.9408752 Z M168.848694,22.2223567 L165.678324,30.2519863 L165.589435,30.2519863 L162.300546,22.2223567 L159.337583,22.2223567 L164.270916,33.4519863 L161.456102,39.6890234 L164.34499,39.6890234 L171.930176,22.2223567 L168.848694,22.2223567 Z M143.959805,34.0742085 L146.715361,34.0742085 L146.715361,15.55569 L143.959805,15.55569 L143.959805,34.0742085 Z" id="Shape" fill="#FFFFFF"></path>
                    <path d="M0.996842242,0.800134474 C0.508648687,1.37734853 0.259551993,2.11933868 0.300545946,2.87420855 L0.300545946,35.6445789 C0.250137012,36.4006963 0.500388172,37.1461253 0.996842242,37.718653 L1.10054595,37.8371715 L19.4561015,19.481616 L19.4561015,19.0371715 L1.10054595,0.69643077 L0.996842242,0.800134474 Z" id="Path" fill="url(#linearGradient-1)"></path>
                    <path d="M25.5301756,25.6001345 L19.4561015,19.481616 L19.4561015,19.0371715 L25.5301756,12.918653 L25.6635089,13.0075419 L32.937583,17.1260604 C35.0116571,18.2964308 35.0116571,20.2223567 32.937583,21.4075419 L25.6931385,25.5260604 L25.5301756,25.6001345 Z" id="Path" fill="url(#linearGradient-2)"></path>
                    <path d="M25.7079534,25.5112456 L19.4561015,19.2593937 L0.996842242,37.718653 C1.86059421,38.4874987 3.14979035,38.5310947 4.06350891,37.8223567 L25.7079534,25.5112456" id="Path" fill="url(#linearGradient-3)"></path>
                    <path d="M25.7079534,13.0075419 L4.06350891,0.711245585 C3.15530827,-0.00768551924 1.86187591,0.0298052739 0.996842242,0.800134474 L19.4561015,19.2593937 L25.7079534,13.0075419 Z" id="Path" fill="url(#linearGradient-4)"></path>
                    <path d="M25.5301756,25.3779123 L4.06350891,37.6001345 C3.18670034,38.2618815 1.97735452,38.2618815 1.10054595,37.6001345 L1.10054595,37.6001345 L0.996842242,37.7038382 L0.996842242,37.7038382 L1.10054595,37.8223567 L1.10054595,37.8223567 C1.97735452,38.4841037 3.18670034,38.4841037 4.06350891,37.8223567 L25.7079534,25.5112456 L25.5301756,25.3779123 Z" id="Path" fill="#000000" opacity="0.2"></path>
                    <path d="M0.996842242,37.5112456 C0.520981612,36.9236307 0.287778426,36.1763205 0.34499039,35.4223567 L0.34499039,35.6445789 C0.294581456,36.4006963 0.544832616,37.1461253 1.04128669,37.718653 L1.14499039,37.6149493 L0.996842242,37.5112456 Z" id="Path" fill="#000000" opacity="0.12"></path>
                    <path d="M32.937583,21.1853197 L25.5301756,25.3779123 L25.6635089,25.5112456 L32.937583,21.3927271 C33.8122429,21.0228874 34.4147094,20.2044424 34.5079534,19.2593937 L34.5079534,19.2593937 C34.3201136,20.1143571 33.7372299,20.8292145 32.937583,21.1853197 Z" id="Path" fill="#000000" opacity="0.12"></path>
                    <path d="M4.06350891,0.918652992 L32.937583,17.3334678 C33.7372299,17.689573 34.3201136,18.4044304 34.5079534,19.2593937 L34.5079534,19.2593937 C34.4147094,18.3143451 33.8122429,17.4959 32.937583,17.1260604 L4.06350891,0.711245585 C2.00424965,-0.4739396 0.300545946,0.503838177 0.300545946,2.87420855 L0.300545946,3.09643077 C0.34499039,0.7260604 2.00424965,-0.251717378 4.06350891,0.918652992 Z" id="Path" fill="#FFFFFF" opacity="0.25"></path>
                    <path d="M49.2338793,9.08161596 C48.64033,9.10089388 48.0586874,8.91225304 47.5894348,8.54828262 C47.11977,8.16598165 46.778527,7.64894678 46.6116571,7.06680114 L47.6635089,6.63717151 C47.7914572,7.40981336 48.4509209,7.98217814 49.2338793,8.00013447 C49.702802,8.03213628 50.1590909,7.8397253 50.4635089,7.48161596 C50.764616,7.08166282 50.9165762,6.58910201 50.8931385,6.08902336 L50.8931385,0.000134473773 L52.0338793,0.000134473773 L52.0338793,6.05939373 C52.0909268,6.88401881 51.8009118,7.69498661 51.2338793,8.29643077 C50.7009187,8.81799659 49.979326,9.10128855 49.2338793,9.08161596 Z" id="Path" stroke="#FFFFFF" stroke-width="0.5" fill="#FFFFFF"></path>
                    <polygon id="Path" stroke="#FFFFFF" stroke-width="0.5" fill="#FFFFFF" points="59.17462 1.09643077 55.1598052 1.09643077 55.1598052 3.91124558 58.8190645 3.91124558 58.8190645 4.97791225 55.1598052 4.97791225 55.1598052 7.79272707 59.2190645 7.79272707 59.2190645 8.88902336 53.97462 8.88902336 53.97462 0.000134473773 59.17462 0.000134473773"></polygon>
                    <polygon id="Path" stroke="#FFFFFF" stroke-width="0.5" fill="#FFFFFF" points="64.0486941 8.88902336 62.9079534 8.88902336 62.9079534 1.09643077 60.3598052 1.09643077 60.3598052 0.000134473773 66.4635089 0.000134473773 66.4635089 1.09643077 64.0486941 1.09643077"></polygon>
                    <polygon id="Path" stroke="#FFFFFF" stroke-width="0.5" fill="#FFFFFF" points="67.4116571 8.88902336 67.4116571 7.70383818 72.137583 1.09643077 67.6042496 1.09643077 67.6042496 0.000134473773 73.5301756 0.000134473773 73.5301756 1.18531966 68.8042496 7.79272707 73.57462 7.79272707 73.57462 8.88902336"></polygon>
                    <polygon id="Path" stroke="#FFFFFF" stroke-width="0.5" fill="#FFFFFF" points="78.1820274 8.88902336 77.0412867 8.88902336 77.0412867 1.09643077 74.5672126 1.09643077 74.5672126 0.000134473773 80.6709163 0.000134473773 80.6709163 1.09643077 78.1820274 1.09643077"></polygon>
                    <path d="M85.0857311,8.88902336 L85.0857311,0.000134473773 L88.3005459,0.000134473773 C88.9670088,-0.00655528952 89.6118174,0.236569269 90.1079534,0.681615955 C90.6091108,1.11654149 90.8913196,1.75151116 90.8783237,2.41494929 C90.8883251,2.81487988 90.7744897,3.20812953 90.5523978,3.54087521 C90.3337093,3.85896387 90.0311582,4.11023513 89.6783237,4.26680114 L89.6783237,4.26680114 C90.1060138,4.41305236 90.4818236,4.68075249 90.7598052,5.03717151 C91.0321267,5.40023497 91.1778465,5.84259857 91.17462,6.29643077 C91.1899327,6.98787646 90.8967408,7.65027289 90.37462,8.10383818 C89.8604216,8.58232065 89.1805926,8.8425677 88.4783237,8.8297641 L85.0857311,8.88902336 Z M86.2709163,3.80754188 L88.3301756,3.80754188 C88.7237143,3.83253236 89.1066461,3.67388918 89.3672126,3.37791225 C89.6184316,3.1317383 89.7622032,2.79627127 89.7672126,2.44457892 C89.7615481,2.09593499 89.6239013,1.76240631 89.3820274,1.51124558 C89.1298471,1.23149166 88.7656845,1.07930431 88.3894348,1.09643077 L86.2709163,1.09643077 L86.2709163,3.80754188 Z M86.2709163,7.79272707 L88.5672126,7.79272707 C88.9734626,7.80635635 89.3645949,7.63795213 89.6338793,7.33346781 C89.8896796,7.06024847 90.0325867,6.70033428 90.0338793,6.3260604 C90.0248651,5.95490751 89.8768244,5.60066724 89.6190645,5.33346781 C89.3302506,5.03022177 88.9265871,4.86337416 88.5079534,4.87420855 L86.2709163,4.87420855 L86.2709163,7.79272707 Z" id="Shape" stroke="#FFFFFF" stroke-width="0.5" fill="#FFFFFF"></path>
                    <polygon id="Path" stroke="#FFFFFF" stroke-width="0.5" fill="#FFFFFF" points="97.9005459 1.09643077 93.8561015 1.09643077 93.8561015 3.91124558 97.5005459 3.91124558 97.5005459 4.97791225 93.8561015 4.97791225 93.8561015 7.79272707 97.9005459 7.79272707 97.9005459 8.88902336 92.7153608 8.88902336 92.7153608 0.000134473773 97.9005459 0.000134473773"></polygon>
                    <polygon id="Path" stroke="#FFFFFF" stroke-width="0.5" fill="#FFFFFF" points="99.6931385 8.88902336 99.6931385 0.000134473773 100.833879 0.000134473773 100.833879 8.88902336"></polygon>
                </g>
            </g>
        </g>
    </g>
</svg>