<?xml version="1.0" encoding="UTF-8" standalone="no"?>
<!DOCTYPE svg PUBLIC "-//W3C//DTD SVG 1.1//EN" "http://www.w3.org/Graphics/SVG/1.1/DTD/svg11.dtd">
<svg width="100%" height="100%" viewBox="0 0 1024 1024" version="1.1" xmlns="http://www.w3.org/2000/svg" xmlns:xlink="http://www.w3.org/1999/xlink" xml:space="preserve" xmlns:serif="http://www.serif.com/" style="fill-rule:evenodd;clip-rule:evenodd;stroke-linecap:round;stroke-linejoin:round;stroke-miterlimit:1.5;">
    <g transform="matrix(1.06712,0,0,1.06712,-4.64396,-59.4006)">
        <g transform="matrix(0.780915,-1.52123e-31,1.54008e-31,0.771355,92.7964,140.527)">
            <circle cx="512" cy="512" r="512" style="fill:none;stroke:rgb(51,49,48);stroke-opacity:0.46;stroke-width:30.18px;"/>
        </g>
        <g transform="matrix(0.67844,-1.31569e-31,1.33799e-31,0.667133,145.264,193.889)">
            <circle cx="512" cy="512" r="512" style="fill:none;stroke:rgb(117,140,203);stroke-opacity:0.8;stroke-width:63.84px;"/>
        </g>
        <g transform="matrix(0.559627,-1.09016e-31,1.10367e-31,0.552776,206.096,252.44)">
            <circle cx="512" cy="512" r="512" style="fill:none;stroke:black;stroke-opacity:0.58;stroke-width:21.06px;"/>
        </g>
        <g id="Flugzeug" transform="matrix(1.19167,0,0,1.19167,-117.51,-51.213)">
            <g transform="matrix(0.0677082,-1.0369e-16,-1.0369e-16,-0.0677082,-59.9547,964.737)">
                <path d="M12490,10554C12402,10509 12285,10452 12229,10428C12174,10404 12071,10347 12002,10301C11932,10256 11830,10203 11776,10184C11721,10166 11664,10140 11650,10127C11635,10114 11567,10072 11497,10033C11428,9994 11347,9944 11317,9922C11288,9899 11257,9881 11249,9881C11241,9881 11212,9858 11185,9829C11128,9770 11059,9730 11013,9730C10996,9730 10956,9757 10924,9790C10892,9824 10836,9870 10799,9893C10762,9917 10714,9952 10693,9972C10672,9991 10642,10020 10626,10035C10555,10101 10305,10217 10195,10234L10082,10252L10008,10220L9934,10187L9889,10100L9863,9929C9889,9810 9884,9432 9856,9368C9814,9270 9674,9117 9586,9073C9464,9012 9376,8952 9226,8827C8975,8618 8854,8568 8600,8568C8537,8568 4975,8879 4904,8894C4836,8909 4242,8925 4242,8912C4242,8905 4255,8885 4270,8868C4303,8831 4187,8887 4172,8887C4156,8888 4131,8900 4116,8915L4089,8943L3951,8934C3868,8929 3755,8907 3667,8879L3522,8833L3404,8719C3326,8645 3268,8570 3234,8503L3183,8400L3205,8286C3231,8155 3341,7974 3422,7930C3450,7915 6296,6312 6296,6312L6271,6262C6256,6235 6228,6204 6207,6193C6186,6182 6116,6129 6052,6077C5987,6024 5883,5955 5820,5923C5820,5923 5358,5502 4974,5330C4854,5276 4675,5194 4577,5149L4398,5065L4297,5082C4181,5100 3999,5207 3910,5308C3880,5342 3849,5370 3840,5370C3831,5370 3821,5376 3818,5383C3808,5408 3691,5471 3654,5471C3634,5471 3592,5497 3559,5530C3527,5562 3492,5589 3481,5589C3471,5589 3448,5601 3430,5617C3413,5633 3371,5655 3338,5667L3277,5688L3184,5659C3113,5637 3065,5605 2977,5521L2862,5411L2862,5277C2863,5154 2879,5065 2956,4781C2970,4730 2984,4677 2987,4663C2990,4649 3008,4600 3026,4553C3062,4464 3104,4233 3089,4209C3084,4201 3029,4186 2965,4175L2850,4156L2730,4039C2663,3975 2608,3913 2607,3901C2601,3821 2620,3750 2668,3670C2668,3670 3330,3271 3432,3135L3523,3013L3754,3023L3985,3032L4091,3005C4149,2990 4235,2958 4282,2935C4329,2911 4417,2875 4478,2854C4538,2833 4617,2800 4654,2780C4705,2752 4751,2744 4844,2744C4981,2744 5067,2772 5139,2841L5186,2886L5175,3046C5156,3334 5227,3528 5416,3705C5547,3827 7734,4825 7836,4864C7938,4903 8112,4986 8223,5049C8334,5112 8520,5211 8635,5269C8751,5327 8910,5410 8989,5452C9201,5567 9387,5630 9553,5644C9599,5648 13809,6342 13874,6358L13992,6386L14030,6446C14051,6479 14114,6566 14171,6639L14273,6771L14284,6863C14305,7029 14267,7064 13958,7162C13850,7197 13746,7240 13728,7258L13694,7290L13692,7521C13690,7777 13663,7909 13591,8019C13567,8055 13533,8127 13515,8179C13483,8272 13356,8480 13294,8540L13262,8572L13294,8608C13312,8628 13343,8672 13364,8706C13403,8771 13708,9140 13808,9263C13937,9421 14106,9748 14158,9940C14206,10115 14222,10264 14158,10424L14086,10502L13999,10560L13913,10619L13700,10629L13380,10603C13309,10579 13215,10564 13102,10558L12931,10550L12812,10586C12747,10606 12684,10625 12672,10629C12660,10632 12578,10598 12490,10554Z" style="fill:white;fill-rule:nonzero;"/>
            </g>
            <g transform="matrix(0.0677082,-1.0369e-16,-1.0369e-16,-0.0677082,-59.9547,964.737)">
                <path d="M12490,10554C12402,10509 12285,10452 12229,10428C12174,10404 12071,10347 12002,10301C11932,10256 11830,10203 11776,10184C11721,10166 11664,10140 11650,10127C11635,10114 11567,10072 11497,10033C11428,9994 11347,9944 11317,9922C11288,9899 11257,9881 11249,9881C11241,9881 11212,9858 11185,9829C11128,9770 11059,9730 11013,9730C10996,9730 10956,9757 10924,9790C10892,9824 10836,9870 10799,9893C10762,9917 10714,9952 10693,9972C10672,9991 10642,10020 10626,10035C10555,10101 10305,10217 10195,10234L10082,10252L10008,10220L9934,10187L9889,10100L9863,9929C9889,9810 9884,9432 9856,9368C9814,9270 9674,9117 9586,9073C9464,9012 9376,8952 9226,8827C8975,8618 8854,8568 8600,8568C8537,8568 4975,8879 4904,8894C4836,8909 4242,8925 4242,8912C4242,8905 4255,8885 4270,8868C4303,8831 4279,8827 4233,8862C4215,8876 4187,8887 4172,8887C4156,8888 4131,8900 4116,8915L4089,8943L3951,8934C3868,8929 3755,8907 3667,8879L3522,8833L3404,8719C3326,8645 3268,8570 3234,8503L3183,8400L3205,8286C3231,8155 3341,7974 3422,7930C3450,7915 6296,6312 6296,6312L6271,6262C6256,6235 6228,6204 6207,6193C6186,6182 6116,6129 6052,6077C5987,6024 5883,5955 5820,5923C5820,5923 5358,5502 4974,5330C4854,5276 4675,5194 4577,5149L4398,5065L4297,5082C4181,5100 3999,5207 3910,5308C3880,5342 3849,5370 3840,5370C3831,5370 3821,5376 3818,5383C3808,5408 3691,5471 3654,5471C3634,5471 3592,5497 3559,5530C3527,5562 3492,5589 3481,5589C3471,5589 3448,5601 3430,5617C3413,5633 3371,5655 3338,5667L3277,5688L3184,5659C3113,5637 3065,5605 2977,5521L2862,5411L2862,5277C2863,5154 2879,5065 2956,4781C2970,4730 2984,4677 2987,4663C2990,4649 3008,4600 3026,4553C3062,4464 3104,4233 3089,4209C3084,4201 3029,4186 2965,4175L2850,4156L2730,4039C2663,3975 2608,3913 2607,3901C2601,3821 2620,3750 2668,3670C2668,3670 3330,3271 3432,3135L3523,3013L3754,3023L3985,3032L4091,3005C4149,2990 4235,2958 4282,2935C4329,2911 4417,2875 4478,2854C4538,2833 4617,2800 4654,2780C4705,2752 4751,2744 4844,2744C4981,2744 5067,2772 5139,2841L5186,2886L5175,3046C5156,3334 5227,3528 5416,3705C5547,3827 7734,4825 7836,4864C7938,4903 8112,4986 8223,5049C8334,5112 8520,5211 8635,5269C8751,5327 8910,5410 8989,5452C9201,5567 9387,5630 9553,5644C9599,5648 13809,6342 13874,6358L13992,6386L14030,6446C14051,6479 14114,6566 14171,6639L14273,6771L14284,6863C14305,7029 14267,7064 13958,7162C13850,7197 13746,7240 13728,7258L13694,7290L13692,7521C13690,7777 13663,7909 13591,8019C13567,8055 13533,8127 13515,8179C13483,8272 13356,8480 13294,8540L13262,8572L13294,8608C13312,8628 13343,8672 13364,8706C13403,8771 13708,9140 13808,9263C13937,9421 14106,9748 14158,9940C14206,10115 14222,10264 14158,10424L14086,10502L13999,10560L13913,10619L13700,10629L13380,10603C13309,10579 13215,10564 13102,10558L12931,10550L12812,10586C12747,10606 12684,10625 12672,10629C12660,10632 12578,10598 12490,10554ZM13728,10537C13733,10528 13635,10182 13596,10138C13577,10117 13566,10100 13570,10100C13590,10100 13202,9717 13162,9698C13138,9686 13105,9647 13089,9610C13073,9574 13054,9544 13046,9544C13038,9544 12963,9478 12880,9397C12796,9316 12717,9242 12703,9233C12690,9224 12618,9163 12544,9098C12469,9034 12365,8946 12312,8905C12260,8863 12190,8804 12158,8774C12125,8744 12093,8720 12087,8720C12081,8720 12039,8685 11993,8642C11947,8599 11873,8540 11829,8510L11749,8455L11674,8463C11597,8471 11586,8462 11614,8418C11624,8402 11621,8378 11607,8350C11582,8302 11518,8239 11506,8250C11502,8255 11495,8322 11490,8400C11485,8479 11476,8602 11470,8673C11459,8814 11472,8834 11526,8760L11557,8717L11633,8746C11674,8762 12581,9447 12567,9492C12560,9512 12546,9528 12534,9528C12522,9528 12492,9546 12467,9569C12385,9645 11998,9377 11998,9377L12019,9351C12030,9337 12062,9326 12090,9326C12123,9326 12137,9318 12134,9303C12127,9275 11566,8832 11566,8832L11523,8861C11458,8903 11470,8948 11573,9049L11666,9140L11603,9240C11568,9296 11529,9345 11516,9350C11503,9356 11460,9341 11420,9318C11381,9294 11339,9275 11327,9275C11302,9275 11228,9341 11228,9363C11228,9371 11214,9392 11197,9410C11159,9451 11093,9574 11093,9604C11093,9624 11226,9730 11251,9730C11256,9730 11289,9749 11324,9773C11359,9797 11414,9828 11446,9843C11479,9858 11526,9887 11551,9907C11576,9928 11630,9961 11673,9982C11715,10002 11750,10026 11750,10035C11750,10044 11758,10046 11769,10039C11781,10032 11784,10035 11777,10047C11770,10058 11774,10066 11786,10066C11798,10066 11850,10097 11903,10134C11956,10171 12006,10201 12015,10201C12024,10201 12051,10216 12074,10235C12125,10275 12144,10256 12120,10192C12097,10132 12123,10052 12183,9995C12263,9919 12300,9925 12414,10034L12504,10119L12499,10177C12495,10216 12472,10259 12432,10304L12370,10373L12402,10395C12445,10425 12511,10440 12534,10424C12544,10417 12573,10378 12599,10338L12645,10264L12730,10274C12777,10280 12827,10294 12842,10306C12857,10319 12888,10337 12911,10348C13102,10436 13189,10471 13298,10504C13368,10524 13492,10534 13501,10537C13544,10550 13718,10553 13728,10537ZM13999,10433C14074,10380 14089,10340 14089,10208L14089,10134L14010,10134C13966,10133 13906,10133 13877,10133C13849,10133 13797,10145 13763,10159L13702,10185C13702,10185 13837,10471 13837,10483C13837,10516 13917,10491 13999,10433ZM10407,10058C10542,9968 10781,9789 10828,9742C10886,9685 10834,9579 10727,9533C10669,9509 10615,9515 10523,9556C10430,9598 10344,9603 10275,9570C10186,9528 10083,9429 10089,9392C10096,9341 10112,9337 10153,9374C10173,9394 10200,9410 10213,9410C10225,9410 10235,9416 10235,9423C10235,9434 10355,9494 10378,9494C10393,9494 10386,9361 10370,9352C10336,9330 10377,9035 10423,8977C10432,8966 10435,8950 10430,8941C10425,8933 10432,8916 10446,8904C10460,8893 10483,8858 10498,8827C10513,8796 10531,8770 10539,8770C10583,8770 10624,8553 10595,8477C10575,8425 10494,8465 10485,8530C10484,8537 10469,8563 10452,8588C10434,8612 10420,8644 10420,8659C10420,8674 10412,8686 10401,8686C10378,8686 10320,8755 10319,8783C10319,8794 10311,8804 10301,8804C10291,8804 10274,8825 10263,8851C10252,8877 10232,8911 10218,8928C10083,9085 10059,9085 10116,8925C10135,8871 10300,8638 10300,8638C10300,8638 10331,8568 10324,8568C10318,8568 10321,8559 10332,8548C10343,8537 10369,8443 10390,8421L10427,8382L10374,8329C10336,8292 10307,8277 10269,8278L10216,8280L10091,8410C10023,8482 9958,8564 9946,8592C9935,8621 9921,8648 9916,8652C9892,8673 9864,8740 9864,8774C9864,8795 9854,8846 9842,8888C9812,8994 9823,9030 9903,9094C10044,9204 10054,9238 10005,9419C9987,9489 9979,9587 9979,9741C9980,9979 10000,10059 10071,10121L10108,10154L10196,10147L10284,10139L10407,10058ZM11022,9453C11052,9409 11072,9366 11067,9357C11056,9341 11103,9205 11137,9149C11149,9130 11156,9086 11153,9051C11150,9013 11157,8978 11171,8964C11184,8951 11194,8934 11194,8927C11194,8919 11226,8897 11266,8879L11337,8846L11367,8756C11409,8630 11430,8347 11404,8262C11367,8141 11213,8087 11046,8136L10961,8162L10951,8136C10946,8122 10946,8103 10952,8094C10964,8074 11069,8026 11118,8018C11208,8003 11218,7976 11147,7947C11097,7926 10959,7928 10959,7950C10958,7956 10938,7963 10912,7963C10887,7963 10839,7977 10807,7993L10748,8022L10753,8064C10755,8087 10765,8108 10774,8111C10783,8114 10790,8125 10791,8136C10791,8162 10868,8248 10890,8248C10900,8248 10908,8255 10908,8263C10908,8271 10940,8310 10979,8349C11018,8388 11051,8431 11053,8445C11055,8459 11069,8483 11084,8500C11128,8548 11144,8775 11109,8864C11101,8887 11095,8911 11097,8918C11098,8925 11083,8964 11063,9005C11042,9046 11026,9088 11026,9098C11026,9107 11007,9136 10984,9161C10961,9186 10942,9215 10942,9225C10942,9235 10932,9254 10921,9266C10807,9383 10795,9441 10874,9488C10902,9505 10925,9525 10925,9533C10925,9566 10970,9529 11022,9453ZM9699,8846C9713,8764 9765,8603 9810,8501C9844,8425 9910,8353 10012,8283C10042,8263 10077,8225 10090,8200L10114,8155L10075,8117C10054,8097 10025,8080 10010,8080C9996,8080 9974,8070 9962,8057C9942,8037 9895,8004 9748,7908C9661,7851 9521,7777 9501,7777C9489,7777 9477,7771 9474,7763C9469,7750 9288,7659 9267,7659C9261,7659 9221,7643 9177,7622C9056,7566 8990,7562 9044,7615C9088,7659 9237,7787 9281,7819C9427,7924 9540,8013 9560,8036C9572,8051 9592,8063 9605,8063C9617,8063 9647,8084 9671,8109L9715,8156L9704,8231C9683,8390 9602,8480 9460,8504C9419,8511 9340,8524 9286,8533C9231,8542 9053,8536 9044,8544C9029,8559 9259,8703 9287,8703C9294,8703 9321,8729 9347,8762C9395,8822 9516,8888 9577,8888C9596,8888 9612,8896 9612,8906C9612,8916 9629,8922 9649,8919C9678,8914 9689,8898 9699,8846ZM4974,8753C5030,8745 5131,8736 5198,8734C5329,8729 5372,8715 5344,8688C5328,8672 5032,8698 4806,8736C4750,8745 4668,8756 4623,8760C4578,8765 4537,8773 4531,8780C4518,8794 4831,8775 4974,8753ZM5782,8678C5838,8674 5936,8666 6001,8660C6066,8655 6142,8648 6169,8645C6225,8638 6394,8623 6573,8610C6638,8606 6737,8598 6792,8593C6848,8588 6958,8580 7036,8576C7115,8571 7243,8560 7321,8551C7398,8542 7468,8539 7476,8544C7484,8549 7491,8545 7491,8534C7491,8524 7498,8520 7508,8526C7517,8532 7524,8528 7524,8519C7524,8509 7513,8501 7499,8501C7485,8501 7468,8489 7463,8474L7452,8447L7291,8460C7202,8467 7102,8475 7070,8477C6926,8489 6806,8501 6767,8509C6744,8514 6676,8521 6615,8526C6555,8531 6423,8546 6321,8559C6219,8573 6102,8588 6060,8592C6018,8597 5943,8605 5892,8610C5841,8616 5763,8623 5719,8628C5675,8632 5610,8651 5576,8669L5513,8704L5597,8695C5643,8690 5727,8683 5782,8678ZM13261,8488C13264,8463 13278,8430 13291,8415C13304,8401 13315,8377 13315,8363C13315,8349 13330,8324 13349,8307C13367,8290 13382,8269 13382,8260C13382,8251 13401,8218 13425,8188C13448,8158 13467,8128 13467,8122C13467,8117 13490,8062 13519,8001C13580,7871 13620,7695 13624,7538L13627,7426L13587,7384L13546,7341L13490,7384L13433,7427L13420,7390L13406,7353L13385,7379L13364,7404L13411,7477C13437,7517 13463,7554 13469,7558C13475,7563 13490,7614 13501,7672L13522,7778L13491,7891C13464,7994 13415,8100 13307,8290C13286,8327 13272,8363 13276,8369C13285,8385 13218,8404 13197,8391C13188,8385 13184,8374 13190,8365C13201,8346 13180,8345 13154,8362C13109,8393 13116,8433 13175,8492C13241,8558 13252,8557 13261,8488ZM7844,8509C7904,8503 7984,8496 8021,8492C8058,8489 8160,8481 8248,8475C8336,8470 8446,8462 8492,8459C8539,8455 8664,8447 8770,8441C8877,8435 8970,8424 8978,8417C8986,8409 9012,8408 9037,8414C9090,8427 9129,8427 9208,8412C9240,8406 9312,8396 9367,8390C9482,8378 9559,8330 9560,8267L9561,8227L9463,8236C9394,8242 9343,8259 9295,8291C9222,8339 9174,8337 9174,8287C9174,8270 9168,8264 9161,8274C9154,8283 9081,8291 8997,8291C8833,8292 8340,8331 8299,8346C8285,8351 8255,8356 8231,8358C8067,8369 7904,8386 7892,8393C7885,8397 7843,8402 7799,8403C7740,8404 7705,8415 7670,8444C7644,8466 7609,8484 7592,8484C7574,8484 7555,8493 7548,8503C7540,8517 7547,8520 7572,8513C7592,8508 7609,8511 7609,8521C7609,8530 7635,8534 7672,8528C7706,8523 7784,8514 7844,8509ZM13007,8217C13006,8128 13047,7980 13097,7895C13120,7855 13175,7738 13186,7707C13191,7691 13185,7670 13172,7659L13149,7640L13106,7707C13083,7744 13059,7793 13053,7816C13048,7840 13028,7872 13011,7888C12993,7904 12978,7927 12978,7939C12978,7970 12878,8130 12859,8130C12832,8130 12843,8072 12887,7978C12931,7887 12950,7842 12983,7760C12992,7737 13009,7699 13020,7676C13031,7653 13041,7610 13043,7580L13046,7527L12997,7551C12953,7573 12891,7644 12895,7668C12896,7673 12885,7696 12870,7719C12855,7742 12847,7760 12853,7760C12866,7760 12768,7901 12735,7928C12623,8021 12750,7654 12904,7441L12946,7383L12874,7349C12834,7331 12790,7302 12775,7286C12760,7270 12730,7248 12708,7239C12685,7229 12637,7202 12600,7180C12563,7157 12476,7109 12406,7075C12337,7040 12276,7007 12271,7002C12261,6991 12122,6918 12111,6918C12086,6918 12112,6967 12157,7003C12185,7026 12229,7063 12253,7085C12277,7107 12323,7144 12356,7169C12485,7266 12568,7381 12584,7487L12596,7558L12553,7623L12510,7687L12408,7725C12351,7745 12305,7767 12305,7774C12305,7780 12322,7799 12343,7816C12389,7852 12519,7947 12555,7971C12569,7980 12600,8005 12624,8026C12648,8047 12692,8080 12722,8099C12752,8118 12776,8140 12776,8148C12776,8155 12793,8167 12814,8174C12834,8180 12865,8203 12882,8225C12899,8247 12921,8265 12930,8265C12940,8265 12959,8277 12972,8290C12986,8304 13000,8316 13003,8316C13006,8316 13008,8271 13007,8217ZM13364,7286C13401,7263 13412,7221 13381,7221C13353,7221 13248,7274 13248,7288C13248,7325 13302,7324 13364,7286ZM13669,7183C13692,7171 13764,7144 13829,7122C13893,7101 13954,7076 13962,7068C13990,7043 13872,7051 13819,7079C13792,7093 13770,7100 13770,7095C13770,7089 13760,7091 13749,7098C13737,7105 13720,7112 13711,7114C13660,7122 13567,7173 13576,7187C13590,7210 13618,7209 13669,7183ZM6678,6152C6704,6139 6734,6127 6744,6127C6779,6127 6902,6066 6890,6054C6884,6048 6889,6043 6901,6043C6915,6043 6919,6030 6912,6003C6899,5952 6931,5862 6986,5793C7049,5715 7090,5725 7228,5855L7305,5927L7377,5926C7416,5926 7460,5926 7474,5927C7488,5928 7522,5924 7550,5918C7578,5912 7622,5903 7648,5898C7701,5888 7760,5837 7760,5800C7760,5755 6361,4747 6355,4747C6348,4747 6233,4682 6204,4689C6178,4696 6435,5002 6499,5077C6514,5095 6543,5120 6564,5134C6573.76,5140.21 6761.63,5272.24 6964.7,5422C7219.61,5610 7498.48,5825.94 7479,5856C7454,5894 7386,5885 7334,5838C7266,5776 7192,5723 7173,5723C7163,5723 7130,5702 7100,5676C7053,5636 6940,5556 6759,5437C6708,5404 6642,5354 6576,5302C6547,5278 6484,5234 6437,5205C6390,5175 6337,5135 6320,5116C6277,5069 5711,4367 5711,4367L5651,4321C5618,4296 5585,4276 5577,4276C5569,4276 5536,4254 5504,4228C5472,4202 5434,4175 5420,4169C5406,4163 5361,4138 5319,4114C5278,4090 5172,4033 5084,3987C4996,3940 4917,3896 4908,3887C4899,3879 4881,3872 4867,3872C4853,3872 4829,3860 4813,3845C4797,3831 4773,3817 4761,3815C4748,3813 4709,3794 4675,3773C4640,3751 4567,3712 4512,3686C4458,3659 4408,3630 4402,3620C4396,3610 4384,3606 4374,3612C4365,3618 4345,3611 4329,3598C4280,3555 3749,3302 3682,3290C3597,3275 3602,3299 3699,3364C3743,3394 3813,3445 3855,3477C3896,3509 3946,3542 3964,3552C3983,3561 4032,3595 4074,3628C4166,3699 4269,3772 4314,3799C4393,3845 4528,3969 4561,4026L4596,4088L4569,4114C4555,4129 4531,4141 4518,4141C4504,4141 4476,4153 4454,4167C4432,4181 4390,4196 4360,4199C4330,4203 4301,4211 4295,4217C4281,4231 4956,4890 5530,5422C5595,5482 5694,5577 5750,5633C5807,5688 5892,5762 5940,5796C5988,5831 6048,5877 6073,5899C6166,5979 6334,6120 6368,6144C6456,6209 6563,6212 6678,6152ZM3235,5433C3335,5335 3481,5186 3481,5166C3481,5146 3594,4913 3605,4903C3723.07,4652.85 3846,4244 3817,4215C3813,4211 3695,4207 3554,4206L3299,4205L3260,4230C3219,4257 3190,4329 3105,4612C3079,4700 3051,4779 3044,4788C3036,4797 3030,4821 3030,4842C3030,4863 3015,4920 2997,4969C2979,5018 2953,5107 2939,5166C2910,5293 2915,5309 3028,5425C3118,5518 3146,5519 3235,5433ZM3534,5431C3657,5367 3876,5223 3983,5135C4258,4910 4347,4897 4654,5040C4701,5061 4758,5085 4781,5092C4804,5099 4838,5115 4856,5128C4874,5141 4903,5151 4920,5151L4950,5151L4932,5118C4923,5100 4871,5040 4818,4986C4342,4499 4265,4412 4192,4270C4162,4211 4115,4191 4006,4191L3925,4191C3925,4191 3760,4761 3747,4789C3734,4817 3707,4877 3686,4924C3608,5101 3530,5246 3450,5366C3404,5435 3367,5494 3367,5497C3367,5512 3411,5494 3534,5431ZM4457,4078C4464,4055 4471,4056 4124,4048C3857,4041 3153,4037 3097,4041C3065,4043 3071,4048 3123,4059C3259,4091 3421,4099 3929,4099C4330,4099 4451,4094 4457,4078Z" style="fill:rgb(49,49,49);fill-rule:nonzero;"/>
            </g>
        </g>
    </g>
    <g transform="matrix(4.04669,-0.693751,0.474701,2.76896,-1204.91,-239.566)">
        <path d="M380.148,267.763L381.75,274.932L386.932,274.932L382.74,279.363L384.341,286.532L380.148,282.101L375.956,286.532L377.557,279.363L373.365,274.932L378.547,274.932L380.148,267.763Z" style="fill:rgb(51,49,48);"/>
    </g>
    <g transform="matrix(3.09645,-1.36093,0.931216,2.11876,-1020.42,215.598)">
        <path d="M380.148,267.763L381.75,274.932L386.932,274.932L382.74,279.363L384.341,286.532L380.148,282.101L375.956,286.532L377.557,279.363L373.365,274.932L378.547,274.932L380.148,267.763Z" style="fill:rgb(51,49,48);"/>
    </g>
    <g transform="matrix(3.35078,-0.460906,0.315376,2.29278,-839.454,-200.578)">
        <path d="M380.148,267.763L381.75,274.932L386.932,274.932L382.74,279.363L384.341,286.532L380.148,282.101L375.956,286.532L377.557,279.363L373.365,274.932L378.547,274.932L380.148,267.763Z" style="fill:rgb(51,49,48);"/>
    </g>
</svg>
